<svg width="50" height="50" viewBox="0 0 50 50" fill="none" xmlns="http://www.w3.org/2000/svg">
<path d="M24.9999 8.33325C26.1505 8.33325 27.0832 9.26599 27.0832 10.4166V22.9166H39.5832C40.7338 22.9166 41.6666 23.8493 41.6666 24.9999C41.6666 26.1505 40.7338 27.0833 39.5832 27.0833H27.0832V39.5833C27.0832 40.7338 26.1505 41.6666 24.9999 41.6666C23.8493 41.6666 22.9166 40.7338 22.9166 39.5833V27.0833H10.4166C9.26599 27.0833 8.33325 26.1505 8.33325 24.9999C8.33325 23.8493 9.26599 22.9166 10.4166 22.9166H22.9166V10.4166C22.9166 9.26599 23.8493 8.33325 24.9999 8.33325Z" fill="#E7E7E7"/>
</svg>
